<?xml version="1.0" encoding="UTF-8" standalone="no"?>
<!DOCTYPE svg PUBLIC "-//W3C//DTD SVG 1.1//EN"
 "http://www.w3.org/Graphics/SVG/1.1/DTD/svg11.dtd">
<!-- Generated by graphviz version 2.43.0 (0)
 -->
<!-- Title: DualScaleModel Pages: 1 -->
<svg width="1805pt" height="326pt"
 viewBox="0.00 0.00 1805.00 326.00" xmlns="http://www.w3.org/2000/svg" xmlns:xlink="http://www.w3.org/1999/xlink">
<g id="graph0" class="graph" transform="scale(1 1) rotate(0) translate(4 322)">
<title>DualScaleModel</title>
<polygon fill="white" stroke="transparent" points="-4,4 -4,-322 1801,-322 1801,4 -4,4"/>
<!-- inp -->
<g id="node1" class="node">
<title>inp</title>
<path fill="#eeeeee" stroke="black" d="M107,-178C107,-178 12,-178 12,-178 6,-178 0,-172 0,-166 0,-166 0,-152 0,-152 0,-146 6,-140 12,-140 12,-140 107,-140 107,-140 113,-140 119,-146 119,-152 119,-152 119,-166 119,-166 119,-172 113,-178 107,-178"/>
<text text-anchor="middle" x="59.5" y="-162.8" font-family="Times,serif" font-size="14.00">Input</text>
<text text-anchor="middle" x="59.5" y="-147.8" font-family="Times,serif" font-size="14.00">B×T×3×H×W</text>
</g>
<!-- bb -->
<g id="node2" class="node">
<title>bb</title>
<path fill="#cfe8ff" stroke="black" d="M294,-178C294,-178 167,-178 167,-178 161,-178 155,-172 155,-166 155,-166 155,-152 155,-152 155,-146 161,-140 167,-140 167,-140 294,-140 294,-140 300,-140 306,-146 306,-152 306,-152 306,-166 306,-166 306,-172 300,-178 294,-178"/>
<text text-anchor="middle" x="230.5" y="-162.8" font-family="Times,serif" font-size="14.00">Backbone CNN</text>
<text text-anchor="middle" x="230.5" y="-147.8" font-family="Times,serif" font-size="14.00">(B·T)×Cb×Hb×Wb</text>
</g>
<!-- inp&#45;&gt;bb -->
<g id="edge1" class="edge">
<title>inp&#45;&gt;bb</title>
<path fill="none" stroke="black" d="M119.13,-159C127.42,-159 136.08,-159 144.75,-159"/>
<polygon fill="black" stroke="black" points="144.89,-162.5 154.89,-159 144.89,-155.5 144.89,-162.5"/>
</g>
<!-- pool -->
<g id="node3" class="node">
<title>pool</title>
<path fill="#cfe8ff" stroke="black" d="M476,-178C476,-178 354,-178 354,-178 348,-178 342,-172 342,-166 342,-166 342,-152 342,-152 342,-146 348,-140 354,-140 354,-140 476,-140 476,-140 482,-140 488,-146 488,-152 488,-152 488,-166 488,-166 488,-172 482,-178 476,-178"/>
<text text-anchor="middle" x="415" y="-162.8" font-family="Times,serif" font-size="14.00">Spatial Attn / GAP</text>
<text text-anchor="middle" x="415" y="-147.8" font-family="Times,serif" font-size="14.00">(B·T)×Cb</text>
</g>
<!-- bb&#45;&gt;pool -->
<g id="edge2" class="edge">
<title>bb&#45;&gt;pool</title>
<path fill="none" stroke="black" d="M306.26,-159C314.58,-159 323.1,-159 331.52,-159"/>
<polygon fill="black" stroke="black" points="331.72,-162.5 341.72,-159 331.72,-155.5 331.72,-162.5"/>
</g>
<!-- proj -->
<g id="node4" class="node">
<title>proj</title>
<path fill="#cfe8ff" stroke="black" d="M748,-178C748,-178 536,-178 536,-178 530,-178 524,-172 524,-166 524,-166 524,-152 524,-152 524,-146 530,-140 536,-140 536,-140 748,-140 748,-140 754,-140 760,-146 760,-152 760,-152 760,-166 760,-166 760,-172 754,-178 748,-178"/>
<text text-anchor="middle" x="642" y="-162.8" font-family="Times,serif" font-size="14.00">Proj: Linear+BN+GELU+Drop</text>
<text text-anchor="middle" x="642" y="-147.8" font-family="Times,serif" font-size="14.00">B×T×d</text>
</g>
<!-- pool&#45;&gt;proj -->
<g id="edge3" class="edge">
<title>pool&#45;&gt;proj</title>
<path fill="none" stroke="black" d="M488.12,-159C496.34,-159 504.9,-159 513.57,-159"/>
<polygon fill="black" stroke="black" points="513.8,-162.5 523.8,-159 513.8,-155.5 513.8,-162.5"/>
</g>
<!-- slicel -->
<g id="node5" class="node">
<title>slicel</title>
<path fill="#d9f7be" stroke="black" d="M893.5,-206C893.5,-206 808.5,-206 808.5,-206 802.5,-206 796.5,-200 796.5,-194 796.5,-194 796.5,-180 796.5,-180 796.5,-174 802.5,-168 808.5,-168 808.5,-168 893.5,-168 893.5,-168 899.5,-168 905.5,-174 905.5,-180 905.5,-180 905.5,-194 905.5,-194 905.5,-200 899.5,-206 893.5,-206"/>
<text text-anchor="middle" x="851" y="-190.8" font-family="Times,serif" font-size="14.00">Slice last T_ℓ</text>
<text text-anchor="middle" x="851" y="-175.8" font-family="Times,serif" font-size="14.00">B×T_ℓ×d</text>
</g>
<!-- proj&#45;&gt;slicel -->
<g id="edge4" class="edge">
<title>proj&#45;&gt;slicel</title>
<path fill="none" stroke="black" d="M760.11,-174.84C769.08,-176.05 777.92,-177.25 786.34,-178.39"/>
<polygon fill="black" stroke="black" points="786.01,-181.88 796.39,-179.75 786.95,-174.94 786.01,-181.88"/>
</g>
<!-- slices -->
<g id="node13" class="node">
<title>slices</title>
<path fill="#d9f7be" stroke="black" d="M894,-150C894,-150 808,-150 808,-150 802,-150 796,-144 796,-138 796,-138 796,-124 796,-124 796,-118 802,-112 808,-112 808,-112 894,-112 894,-112 900,-112 906,-118 906,-124 906,-124 906,-138 906,-138 906,-144 900,-150 894,-150"/>
<text text-anchor="middle" x="851" y="-134.8" font-family="Times,serif" font-size="14.00">Slice last T_s</text>
<text text-anchor="middle" x="851" y="-119.8" font-family="Times,serif" font-size="14.00">B×T_s×d</text>
</g>
<!-- proj&#45;&gt;slices -->
<g id="edge12" class="edge">
<title>proj&#45;&gt;slices</title>
<path fill="none" stroke="black" d="M760.11,-143.16C768.95,-141.96 777.66,-140.78 785.98,-139.66"/>
<polygon fill="black" stroke="black" points="786.46,-143.13 795.9,-138.32 785.52,-136.19 786.46,-143.13"/>
</g>
<!-- mscl -->
<g id="node6" class="node">
<title>mscl</title>
<path fill="#d9f7be" stroke="black" d="M1064,-206C1064,-206 954,-206 954,-206 948,-206 942,-200 942,-194 942,-194 942,-180 942,-180 942,-174 948,-168 954,-168 954,-168 1064,-168 1064,-168 1070,-168 1076,-174 1076,-180 1076,-180 1076,-194 1076,-194 1076,-200 1070,-206 1064,-206"/>
<text text-anchor="middle" x="1009" y="-190.8" font-family="Times,serif" font-size="14.00">Multi&#45;Scale TCN</text>
<text text-anchor="middle" x="1009" y="-175.8" font-family="Times,serif" font-size="14.00">B×T_ℓ×d</text>
</g>
<!-- slicel&#45;&gt;mscl -->
<g id="edge5" class="edge">
<title>slicel&#45;&gt;mscl</title>
<path fill="none" stroke="black" d="M905.69,-187C914.05,-187 922.82,-187 931.57,-187"/>
<polygon fill="black" stroke="black" points="931.81,-190.5 941.81,-187 931.81,-183.5 931.81,-190.5"/>
</g>
<!-- confl -->
<g id="node7" class="node">
<title>confl</title>
<path fill="#d9f7be" stroke="black" d="M1264,-206C1264,-206 1124,-206 1124,-206 1118,-206 1112,-200 1112,-194 1112,-194 1112,-180 1112,-180 1112,-174 1118,-168 1124,-168 1124,-168 1264,-168 1264,-168 1270,-168 1276,-174 1276,-180 1276,-180 1276,-194 1276,-194 1276,-200 1270,-206 1264,-206"/>
<text text-anchor="middle" x="1194" y="-190.8" font-family="Times,serif" font-size="14.00">Temporal Conformer</text>
<text text-anchor="middle" x="1194" y="-175.8" font-family="Times,serif" font-size="14.00">B×T_ℓ×d</text>
</g>
<!-- mscl&#45;&gt;confl -->
<g id="edge6" class="edge">
<title>mscl&#45;&gt;confl</title>
<path fill="none" stroke="black" d="M1076.07,-187C1084.38,-187 1093,-187 1101.62,-187"/>
<polygon fill="black" stroke="black" points="1101.72,-190.5 1111.72,-187 1101.72,-183.5 1101.72,-190.5"/>
</g>
<!-- pickl -->
<g id="node8" class="node">
<title>pickl</title>
<path fill="#d9f7be" stroke="black" d="M1420.5,-262C1420.5,-262 1367.5,-262 1367.5,-262 1361.5,-262 1355.5,-256 1355.5,-250 1355.5,-250 1355.5,-236 1355.5,-236 1355.5,-230 1361.5,-224 1367.5,-224 1367.5,-224 1420.5,-224 1420.5,-224 1426.5,-224 1432.5,-230 1432.5,-236 1432.5,-236 1432.5,-250 1432.5,-250 1432.5,-256 1426.5,-262 1420.5,-262"/>
<text text-anchor="middle" x="1394" y="-246.8" font-family="Times,serif" font-size="14.00">Pick last</text>
<text text-anchor="middle" x="1394" y="-231.8" font-family="Times,serif" font-size="14.00">B×d</text>
</g>
<!-- confl&#45;&gt;pickl -->
<g id="edge7" class="edge">
<title>confl&#45;&gt;pickl</title>
<path fill="none" stroke="black" d="M1262.31,-206.04C1289.6,-213.76 1320.49,-222.49 1345.38,-229.53"/>
<polygon fill="black" stroke="black" points="1344.73,-232.98 1355.3,-232.34 1346.63,-226.25 1344.73,-232.98"/>
</g>
<!-- attnpool -->
<g id="node11" class="node">
<title>attnpool</title>
<path fill="#ffd6a5" stroke="black" d="M1464,-206C1464,-206 1324,-206 1324,-206 1318,-206 1312,-200 1312,-194 1312,-194 1312,-180 1312,-180 1312,-174 1318,-168 1324,-168 1324,-168 1464,-168 1464,-168 1470,-168 1476,-174 1476,-180 1476,-180 1476,-194 1476,-194 1476,-200 1470,-206 1464,-206"/>
<text text-anchor="middle" x="1394" y="-190.8" font-family="Times,serif" font-size="14.00">Attn Pool (learned q)</text>
<text text-anchor="middle" x="1394" y="-175.8" font-family="Times,serif" font-size="14.00">B×d</text>
</g>
<!-- confl&#45;&gt;attnpool -->
<g id="edge10" class="edge">
<title>confl&#45;&gt;attnpool</title>
<path fill="none" stroke="black" d="M1276.11,-187C1284.46,-187 1292.99,-187 1301.44,-187"/>
<polygon fill="black" stroke="black" points="1301.7,-190.5 1311.7,-187 1301.7,-183.5 1301.7,-190.5"/>
</g>
<!-- phase -->
<g id="node9" class="node">
<title>phase</title>
<path fill="#ffd6a5" stroke="black" d="M1620,-318C1620,-318 1546,-318 1546,-318 1540,-318 1534,-312 1534,-306 1534,-306 1534,-292 1534,-292 1534,-286 1540,-280 1546,-280 1546,-280 1620,-280 1620,-280 1626,-280 1632,-286 1632,-292 1632,-292 1632,-306 1632,-306 1632,-312 1626,-318 1620,-318"/>
<text text-anchor="middle" x="1583" y="-302.8" font-family="Times,serif" font-size="14.00">Phase head</text>
<text text-anchor="middle" x="1583" y="-287.8" font-family="Times,serif" font-size="14.00">B×C</text>
</g>
<!-- pickl&#45;&gt;phase -->
<g id="edge8" class="edge">
<title>pickl&#45;&gt;phase</title>
<path fill="none" stroke="black" d="M1432.84,-254.33C1459.02,-262.17 1494.35,-272.75 1524.05,-281.65"/>
<polygon fill="black" stroke="black" points="1523.3,-285.08 1533.88,-284.59 1525.31,-278.37 1523.3,-285.08"/>
</g>
<!-- comp -->
<g id="node10" class="node">
<title>comp</title>
<path fill="#ffd6a5" stroke="black" d="M1639.5,-262C1639.5,-262 1526.5,-262 1526.5,-262 1520.5,-262 1514.5,-256 1514.5,-250 1514.5,-250 1514.5,-236 1514.5,-236 1514.5,-230 1520.5,-224 1526.5,-224 1526.5,-224 1639.5,-224 1639.5,-224 1645.5,-224 1651.5,-230 1651.5,-236 1651.5,-236 1651.5,-250 1651.5,-250 1651.5,-256 1645.5,-262 1639.5,-262"/>
<text text-anchor="middle" x="1583" y="-246.8" font-family="Times,serif" font-size="14.00">Completion head</text>
<text text-anchor="middle" x="1583" y="-231.8" font-family="Times,serif" font-size="14.00">B×1</text>
</g>
<!-- pickl&#45;&gt;comp -->
<g id="edge9" class="edge">
<title>pickl&#45;&gt;comp</title>
<path fill="none" stroke="black" d="M1432.84,-243C1453.38,-243 1479.56,-243 1504.23,-243"/>
<polygon fill="black" stroke="black" points="1504.33,-246.5 1514.33,-243 1504.33,-239.5 1504.33,-246.5"/>
</g>
<!-- ant -->
<g id="node12" class="node">
<title>ant</title>
<path fill="#ffd6a5" stroke="black" d="M1642,-206C1642,-206 1524,-206 1524,-206 1518,-206 1512,-200 1512,-194 1512,-194 1512,-180 1512,-180 1512,-174 1518,-168 1524,-168 1524,-168 1642,-168 1642,-168 1648,-168 1654,-174 1654,-180 1654,-180 1654,-194 1654,-194 1654,-200 1648,-206 1642,-206"/>
<text text-anchor="middle" x="1583" y="-190.8" font-family="Times,serif" font-size="14.00">Anticipation head</text>
<text text-anchor="middle" x="1583" y="-175.8" font-family="Times,serif" font-size="14.00">B×C</text>
</g>
<!-- attnpool&#45;&gt;ant -->
<g id="edge11" class="edge">
<title>attnpool&#45;&gt;ant</title>
<path fill="none" stroke="black" d="M1476.21,-187C1484.61,-187 1493.16,-187 1501.56,-187"/>
<polygon fill="black" stroke="black" points="1501.72,-190.5 1511.72,-187 1501.72,-183.5 1501.72,-190.5"/>
</g>
<!-- mscs -->
<g id="node14" class="node">
<title>mscs</title>
<path fill="#d9f7be" stroke="black" d="M1064,-150C1064,-150 954,-150 954,-150 948,-150 942,-144 942,-138 942,-138 942,-124 942,-124 942,-118 948,-112 954,-112 954,-112 1064,-112 1064,-112 1070,-112 1076,-118 1076,-124 1076,-124 1076,-138 1076,-138 1076,-144 1070,-150 1064,-150"/>
<text text-anchor="middle" x="1009" y="-134.8" font-family="Times,serif" font-size="14.00">Multi&#45;Scale TCN</text>
<text text-anchor="middle" x="1009" y="-119.8" font-family="Times,serif" font-size="14.00">B×T_s×d</text>
</g>
<!-- slices&#45;&gt;mscs -->
<g id="edge13" class="edge">
<title>slices&#45;&gt;mscs</title>
<path fill="none" stroke="black" d="M906.12,-131C914.41,-131 923.09,-131 931.75,-131"/>
<polygon fill="black" stroke="black" points="931.87,-134.5 941.87,-131 931.87,-127.5 931.87,-134.5"/>
</g>
<!-- confs -->
<g id="node15" class="node">
<title>confs</title>
<path fill="#d9f7be" stroke="black" d="M1264,-150C1264,-150 1124,-150 1124,-150 1118,-150 1112,-144 1112,-138 1112,-138 1112,-124 1112,-124 1112,-118 1118,-112 1124,-112 1124,-112 1264,-112 1264,-112 1270,-112 1276,-118 1276,-124 1276,-124 1276,-138 1276,-138 1276,-144 1270,-150 1264,-150"/>
<text text-anchor="middle" x="1194" y="-134.8" font-family="Times,serif" font-size="14.00">Temporal Conformer</text>
<text text-anchor="middle" x="1194" y="-119.8" font-family="Times,serif" font-size="14.00">B×T_s×d</text>
</g>
<!-- mscs&#45;&gt;confs -->
<g id="edge14" class="edge">
<title>mscs&#45;&gt;confs</title>
<path fill="none" stroke="black" d="M1076.07,-131C1084.38,-131 1093,-131 1101.62,-131"/>
<polygon fill="black" stroke="black" points="1101.72,-134.5 1111.72,-131 1101.72,-127.5 1101.72,-134.5"/>
</g>
<!-- picks -->
<g id="node16" class="node">
<title>picks</title>
<path fill="#d9f7be" stroke="black" d="M1420.5,-150C1420.5,-150 1367.5,-150 1367.5,-150 1361.5,-150 1355.5,-144 1355.5,-138 1355.5,-138 1355.5,-124 1355.5,-124 1355.5,-118 1361.5,-112 1367.5,-112 1367.5,-112 1420.5,-112 1420.5,-112 1426.5,-112 1432.5,-118 1432.5,-124 1432.5,-124 1432.5,-138 1432.5,-138 1432.5,-144 1426.5,-150 1420.5,-150"/>
<text text-anchor="middle" x="1394" y="-134.8" font-family="Times,serif" font-size="14.00">Pick last</text>
<text text-anchor="middle" x="1394" y="-119.8" font-family="Times,serif" font-size="14.00">B×d</text>
</g>
<!-- confs&#45;&gt;picks -->
<g id="edge15" class="edge">
<title>confs&#45;&gt;picks</title>
<path fill="none" stroke="black" d="M1276.11,-131C1299.59,-131 1324.45,-131 1345.19,-131"/>
<polygon fill="black" stroke="black" points="1345.32,-134.5 1355.32,-131 1345.32,-127.5 1345.32,-134.5"/>
</g>
<!-- lproj -->
<g id="node17" class="node">
<title>lproj</title>
<path fill="#ffec99" stroke="black" d="M1629,-150C1629,-150 1537,-150 1537,-150 1531,-150 1525,-144 1525,-138 1525,-138 1525,-124 1525,-124 1525,-118 1531,-112 1537,-112 1537,-112 1629,-112 1629,-112 1635,-112 1641,-118 1641,-124 1641,-124 1641,-138 1641,-138 1641,-144 1635,-150 1629,-150"/>
<text text-anchor="middle" x="1583" y="-134.8" font-family="Times,serif" font-size="14.00">Left arm MLP</text>
<text text-anchor="middle" x="1583" y="-119.8" font-family="Times,serif" font-size="14.00">B×h_t</text>
</g>
<!-- picks&#45;&gt;lproj -->
<g id="edge16" class="edge">
<title>picks&#45;&gt;lproj</title>
<path fill="none" stroke="black" d="M1432.84,-131C1456.22,-131 1486.89,-131 1514.33,-131"/>
<polygon fill="black" stroke="black" points="1514.67,-134.5 1524.67,-131 1514.67,-127.5 1514.67,-134.5"/>
</g>
<!-- rproj -->
<g id="node20" class="node">
<title>rproj</title>
<path fill="#ffec99" stroke="black" d="M1634,-94C1634,-94 1532,-94 1532,-94 1526,-94 1520,-88 1520,-82 1520,-82 1520,-68 1520,-68 1520,-62 1526,-56 1532,-56 1532,-56 1634,-56 1634,-56 1640,-56 1646,-62 1646,-68 1646,-68 1646,-82 1646,-82 1646,-88 1640,-94 1634,-94"/>
<text text-anchor="middle" x="1583" y="-78.8" font-family="Times,serif" font-size="14.00">Right arm MLP</text>
<text text-anchor="middle" x="1583" y="-63.8" font-family="Times,serif" font-size="14.00">B×h_t</text>
</g>
<!-- picks&#45;&gt;rproj -->
<g id="edge19" class="edge">
<title>picks&#45;&gt;rproj</title>
<path fill="none" stroke="black" d="M1432.84,-119.67C1455.08,-113.01 1483.93,-104.37 1510.32,-96.46"/>
<polygon fill="black" stroke="black" points="1511.34,-99.81 1519.92,-93.59 1509.33,-93.11 1511.34,-99.81"/>
</g>
<!-- lv -->
<g id="node18" class="node">
<title>lv</title>
<path fill="#ffec99" stroke="black" d="M1773,-206C1773,-206 1714,-206 1714,-206 1708,-206 1702,-200 1702,-194 1702,-194 1702,-180 1702,-180 1702,-174 1708,-168 1714,-168 1714,-168 1773,-168 1773,-168 1779,-168 1785,-174 1785,-180 1785,-180 1785,-194 1785,-194 1785,-200 1779,-206 1773,-206"/>
<text text-anchor="middle" x="1743.5" y="-190.8" font-family="Times,serif" font-size="14.00">Left Verb</text>
<text text-anchor="middle" x="1743.5" y="-175.8" font-family="Times,serif" font-size="14.00">B×V</text>
</g>
<!-- lproj&#45;&gt;lv -->
<g id="edge17" class="edge">
<title>lproj&#45;&gt;lv</title>
<path fill="none" stroke="black" d="M1638.1,-150.12C1655.5,-156.26 1674.69,-163.04 1691.83,-169.1"/>
<polygon fill="black" stroke="black" points="1691.06,-172.54 1701.65,-172.57 1693.39,-165.94 1691.06,-172.54"/>
</g>
<!-- lt -->
<g id="node19" class="node">
<title>lt</title>
<path fill="#ffec99" stroke="black" d="M1779.5,-150C1779.5,-150 1707.5,-150 1707.5,-150 1701.5,-150 1695.5,-144 1695.5,-138 1695.5,-138 1695.5,-124 1695.5,-124 1695.5,-118 1701.5,-112 1707.5,-112 1707.5,-112 1779.5,-112 1779.5,-112 1785.5,-112 1791.5,-118 1791.5,-124 1791.5,-124 1791.5,-138 1791.5,-138 1791.5,-144 1785.5,-150 1779.5,-150"/>
<text text-anchor="middle" x="1743.5" y="-134.8" font-family="Times,serif" font-size="14.00">Left Target</text>
<text text-anchor="middle" x="1743.5" y="-119.8" font-family="Times,serif" font-size="14.00">B×U</text>
</g>
<!-- lproj&#45;&gt;lt -->
<g id="edge18" class="edge">
<title>lproj&#45;&gt;lt</title>
<path fill="none" stroke="black" d="M1641.22,-131C1655.49,-131 1670.8,-131 1685.08,-131"/>
<polygon fill="black" stroke="black" points="1685.27,-134.5 1695.27,-131 1685.27,-127.5 1685.27,-134.5"/>
</g>
<!-- rv -->
<g id="node21" class="node">
<title>rv</title>
<path fill="#ffec99" stroke="black" d="M1778,-94C1778,-94 1709,-94 1709,-94 1703,-94 1697,-88 1697,-82 1697,-82 1697,-68 1697,-68 1697,-62 1703,-56 1709,-56 1709,-56 1778,-56 1778,-56 1784,-56 1790,-62 1790,-68 1790,-68 1790,-82 1790,-82 1790,-88 1784,-94 1778,-94"/>
<text text-anchor="middle" x="1743.5" y="-78.8" font-family="Times,serif" font-size="14.00">Right Verb</text>
<text text-anchor="middle" x="1743.5" y="-63.8" font-family="Times,serif" font-size="14.00">B×V</text>
</g>
<!-- rproj&#45;&gt;rv -->
<g id="edge20" class="edge">
<title>rproj&#45;&gt;rv</title>
<path fill="none" stroke="black" d="M1646.19,-75C1659.46,-75 1673.41,-75 1686.44,-75"/>
<polygon fill="black" stroke="black" points="1686.66,-78.5 1696.66,-75 1686.66,-71.5 1686.66,-78.5"/>
</g>
<!-- rt -->
<g id="node22" class="node">
<title>rt</title>
<path fill="#ffec99" stroke="black" d="M1785,-38C1785,-38 1702,-38 1702,-38 1696,-38 1690,-32 1690,-26 1690,-26 1690,-12 1690,-12 1690,-6 1696,0 1702,0 1702,0 1785,0 1785,0 1791,0 1797,-6 1797,-12 1797,-12 1797,-26 1797,-26 1797,-32 1791,-38 1785,-38"/>
<text text-anchor="middle" x="1743.5" y="-22.8" font-family="Times,serif" font-size="14.00">Right Target</text>
<text text-anchor="middle" x="1743.5" y="-7.8" font-family="Times,serif" font-size="14.00">B×U</text>
</g>
<!-- rproj&#45;&gt;rt -->
<g id="edge21" class="edge">
<title>rproj&#45;&gt;rt</title>
<path fill="none" stroke="black" d="M1638.1,-55.88C1651.73,-51.07 1666.46,-45.87 1680.44,-40.93"/>
<polygon fill="black" stroke="black" points="1681.72,-44.19 1689.98,-37.56 1679.39,-37.59 1681.72,-44.19"/>
</g>
</g>
</svg>
